<mxfile host="Electron" modified="2024-10-05T03:10:38.710Z" agent="Mozilla/5.0 (Windows NT 10.0; Win64; x64) AppleWebKit/537.36 (KHTML, like Gecko) draw.io/24.4.6 Chrome/124.0.6367.207 Electron/30.0.6 Safari/537.36" etag="fTY5IxSek8a4XXqvLuGn" version="24.4.6" type="device">
  <diagram name="第 1 页" id="dVroT6AbXgXHScwGgm5N">
    <mxGraphModel dx="1134" dy="662" grid="1" gridSize="10" guides="1" tooltips="1" connect="1" arrows="1" fold="1" page="1" pageScale="1" pageWidth="827" pageHeight="1169" math="0" shadow="0">
      <root>
        <mxCell id="0" />
        <mxCell id="1" parent="0" />
        <mxCell id="ZHZV37FZAeZcisTQcQWk-5" style="edgeStyle=orthogonalEdgeStyle;rounded=0;orthogonalLoop=1;jettySize=auto;html=1;exitX=0.5;exitY=1;exitDx=0;exitDy=0;entryX=0.5;entryY=0;entryDx=0;entryDy=0;" edge="1" parent="1" source="ZHZV37FZAeZcisTQcQWk-1" target="ZHZV37FZAeZcisTQcQWk-4">
          <mxGeometry relative="1" as="geometry" />
        </mxCell>
        <mxCell id="ZHZV37FZAeZcisTQcQWk-1" value="AI 图像重绘" style="rounded=0;whiteSpace=wrap;html=1;" vertex="1" parent="1">
          <mxGeometry x="115" y="160" width="180" height="80" as="geometry" />
        </mxCell>
        <mxCell id="ZHZV37FZAeZcisTQcQWk-3" style="edgeStyle=orthogonalEdgeStyle;rounded=0;orthogonalLoop=1;jettySize=auto;html=1;exitX=0.5;exitY=1;exitDx=0;exitDy=0;exitPerimeter=0;entryX=0.5;entryY=0;entryDx=0;entryDy=0;" edge="1" parent="1" source="ZHZV37FZAeZcisTQcQWk-2" target="ZHZV37FZAeZcisTQcQWk-1">
          <mxGeometry relative="1" as="geometry" />
        </mxCell>
        <mxCell id="ZHZV37FZAeZcisTQcQWk-2" value="image" style="shape=card;whiteSpace=wrap;html=1;" vertex="1" parent="1">
          <mxGeometry x="180" y="40" width="50" height="70" as="geometry" />
        </mxCell>
        <mxCell id="ZHZV37FZAeZcisTQcQWk-7" style="edgeStyle=orthogonalEdgeStyle;rounded=0;orthogonalLoop=1;jettySize=auto;html=1;exitX=0.5;exitY=1;exitDx=0;exitDy=0;entryX=0.5;entryY=0;entryDx=0;entryDy=0;" edge="1" parent="1" source="ZHZV37FZAeZcisTQcQWk-4" target="ZHZV37FZAeZcisTQcQWk-6">
          <mxGeometry relative="1" as="geometry" />
        </mxCell>
        <mxCell id="ZHZV37FZAeZcisTQcQWk-4" value="边缘检测" style="rounded=0;whiteSpace=wrap;html=1;" vertex="1" parent="1">
          <mxGeometry x="115" y="300" width="180" height="80" as="geometry" />
        </mxCell>
        <mxCell id="ZHZV37FZAeZcisTQcQWk-9" style="edgeStyle=orthogonalEdgeStyle;rounded=0;orthogonalLoop=1;jettySize=auto;html=1;exitX=0.5;exitY=1;exitDx=0;exitDy=0;entryX=0.5;entryY=0;entryDx=0;entryDy=0;" edge="1" parent="1" source="ZHZV37FZAeZcisTQcQWk-6" target="ZHZV37FZAeZcisTQcQWk-8">
          <mxGeometry relative="1" as="geometry" />
        </mxCell>
        <mxCell id="ZHZV37FZAeZcisTQcQWk-6" value="图案区域划分" style="rounded=0;whiteSpace=wrap;html=1;" vertex="1" parent="1">
          <mxGeometry x="115" y="440" width="180" height="80" as="geometry" />
        </mxCell>
        <mxCell id="ZHZV37FZAeZcisTQcQWk-11" style="rounded=0;orthogonalLoop=1;jettySize=auto;html=1;exitX=1;exitY=0.5;exitDx=0;exitDy=0;entryX=0;entryY=0.5;entryDx=0;entryDy=0;" edge="1" parent="1" source="ZHZV37FZAeZcisTQcQWk-8" target="ZHZV37FZAeZcisTQcQWk-10">
          <mxGeometry relative="1" as="geometry" />
        </mxCell>
        <mxCell id="ZHZV37FZAeZcisTQcQWk-13" style="rounded=0;orthogonalLoop=1;jettySize=auto;html=1;exitX=1;exitY=0.5;exitDx=0;exitDy=0;entryX=0;entryY=0.5;entryDx=0;entryDy=0;" edge="1" parent="1" source="ZHZV37FZAeZcisTQcQWk-8" target="ZHZV37FZAeZcisTQcQWk-12">
          <mxGeometry relative="1" as="geometry" />
        </mxCell>
        <mxCell id="ZHZV37FZAeZcisTQcQWk-15" style="rounded=0;orthogonalLoop=1;jettySize=auto;html=1;exitX=1;exitY=0.5;exitDx=0;exitDy=0;entryX=0;entryY=0.5;entryDx=0;entryDy=0;" edge="1" parent="1" source="ZHZV37FZAeZcisTQcQWk-8" target="ZHZV37FZAeZcisTQcQWk-14">
          <mxGeometry relative="1" as="geometry" />
        </mxCell>
        <mxCell id="ZHZV37FZAeZcisTQcQWk-8" value="k均值聚类" style="rounded=0;whiteSpace=wrap;html=1;" vertex="1" parent="1">
          <mxGeometry x="115" y="585" width="180" height="80" as="geometry" />
        </mxCell>
        <mxCell id="ZHZV37FZAeZcisTQcQWk-10" value="平铺图案" style="rounded=0;whiteSpace=wrap;html=1;" vertex="1" parent="1">
          <mxGeometry x="416" y="510" width="150" height="60" as="geometry" />
        </mxCell>
        <mxCell id="ZHZV37FZAeZcisTQcQWk-12" value="平铺图案" style="rounded=0;whiteSpace=wrap;html=1;" vertex="1" parent="1">
          <mxGeometry x="416" y="605" width="150" height="60" as="geometry" />
        </mxCell>
        <mxCell id="ZHZV37FZAeZcisTQcQWk-14" value="平铺图案" style="rounded=0;whiteSpace=wrap;html=1;" vertex="1" parent="1">
          <mxGeometry x="416" y="700" width="150" height="60" as="geometry" />
        </mxCell>
      </root>
    </mxGraphModel>
  </diagram>
</mxfile>
